<svg width="125" height="231" viewBox="0 0 125 231" fill="none" xmlns="http://www.w3.org/2000/svg">
<path d="M121.775 230.484C122.498 230.484 123.13 230.097 123.471 229.522L123.501 229.518L123.611 229.234C123.695 229.016 123.742 228.78 123.742 228.534V188.528C123.742 187.457 122.871 186.588 121.792 186.578L121.766 186.577C121.739 186.575 121.698 186.572 121.644 186.569C121.536 186.561 121.375 186.549 121.168 186.531C120.752 186.495 120.148 186.437 119.396 186.346C117.891 186.165 115.798 185.854 113.449 185.339C108.734 184.305 103.053 182.46 98.9963 179.226C93.0645 174.498 90.3333 168.162 89.0865 162.98C88.4642 160.391 88.2146 158.099 88.1205 156.456C88.0737 155.634 88.0659 154.976 88.0695 154.525C88.0711 154.299 88.0758 154.125 88.0799 154.009C88.081 153.983 88.082 153.959 88.0831 153.939C88.0841 153.915 88.0852 153.894 88.0857 153.878L88.0872 153.847L88.0878 153.84V153.838L88.0888 153.822V153.807V134.471H121.775C122.861 134.471 123.742 133.597 123.742 132.52V97.7068C123.742 96.6297 122.861 95.7567 121.775 95.7567H121.773L79.8688 95.9104H79.8657L2.48689 95.7567H2.48585C1.39985 95.7567 0.519531 96.6297 0.519531 97.7068V132.52C0.519531 133.597 1.39985 134.471 2.48584 134.471H37.0831V151.772V168.072V168.097L37.0857 168.123C38.1561 178.681 41.3414 188.254 46.645 196.836L46.6476 196.84L46.6503 196.844C53.465 207.416 62.4664 215.65 73.6489 221.542L73.6521 221.543C85.0082 227.435 97.4963 230.378 111.107 230.378C114.749 230.378 118.305 230.167 121.775 229.745V230.484ZM61.0647 71.8379C80.9227 71.8379 97.0211 55.8721 97.0211 36.1768C97.0211 16.4817 80.9227 0.515625 61.0647 0.515625C41.2064 0.515625 25.1081 16.4817 25.1081 36.1768C25.1081 55.8721 41.2064 71.8379 61.0647 71.8379Z" fill="white" stroke="white" stroke-width="2"/>
</svg>
