<svg width="126" height="231" viewBox="0 0 126 231" fill="none" xmlns="http://www.w3.org/2000/svg">
<path d="M122.874 230.484C123.597 230.484 124.228 230.097 124.57 229.522L124.599 229.518L124.71 229.234C124.794 229.016 124.84 228.78 124.84 228.534V188.528C124.84 187.457 123.969 186.587 122.89 186.578L122.864 186.577C122.837 186.575 122.797 186.572 122.743 186.569C122.635 186.561 122.474 186.548 122.267 186.531C121.851 186.495 121.246 186.437 120.494 186.346C118.989 186.165 116.897 185.854 114.547 185.339C109.833 184.305 104.152 182.46 100.095 179.226C94.1631 174.498 91.4319 168.162 90.1852 162.98C89.5628 160.391 89.3132 158.099 89.2191 156.456C89.1723 155.634 89.1646 154.976 89.1682 154.525C89.1698 154.299 89.1744 154.125 89.1786 154.009C89.1812 153.951 89.1827 153.907 89.1843 153.878L89.1859 153.847L89.1864 153.84V153.838L89.1874 153.822V153.807V134.47H122.874C123.96 134.47 124.84 133.597 124.84 132.52V97.7068C124.84 96.6297 123.96 95.7567 122.874 95.7567H122.872L80.9674 95.9104H80.9643L3.58556 95.7567H3.58452C2.4984 95.7567 1.61816 96.6297 1.61816 97.7068V132.52C1.61816 133.597 2.4984 134.47 3.58452 134.47H38.1818V151.772V168.072V168.097L38.1844 168.123C39.2549 178.681 42.44 188.254 47.7438 196.836L47.7464 196.84L47.749 196.844C54.5636 207.416 63.565 215.65 74.7476 221.542L74.7507 221.543C86.1069 227.435 98.5949 230.378 112.206 230.378C115.848 230.378 119.404 230.167 122.874 229.745V230.484ZM62.1633 71.8379C82.0213 71.8379 98.1197 55.8721 98.1197 36.1768C98.1197 16.4817 82.0213 0.515625 62.1633 0.515625C42.3048 0.515625 26.2069 16.4817 26.2069 36.1768C26.2069 55.8721 42.3048 71.8379 62.1633 71.8379Z" fill="#FA4D1E" stroke="#FA4D1E" stroke-width="2"/>
</svg>
